<svg id="Layer_2" data-name="Layer 2" xmlns="http://www.w3.org/2000/svg" viewBox="0 0 157.48 34.6"><defs><style>.cls-1{fill:#231f20;}.cls-2{font-size:30.16px;font-family:ArialRoundedMTBold, Arial Rounded MT Bold;}</style></defs><path class="cls-1" d="M5.74,27A7.49,7.49,0,0,1,7,24.42c-.56.18-.67.84-1.23,1.13L5.8,25c-.61.87-1.23,1.65-1,2.78-.35-.49-.71-1-1-1.47a16.68,16.68,0,1,1,29.08-1.68A16.13,16.13,0,0,1,20.1,33.88,16.08,16.08,0,0,1,9,31.48c-.26-.16-.29-.28-.06-.41a4.62,4.62,0,0,0,1.53-1.7c.83-1.33,1.63-2.67,2.44-4A3.13,3.13,0,0,0,13,25c-.35-.07-.44-.18-.32-.51a3.11,3.11,0,0,1,.4-.68c.06-.08.19-.1.22-.18a1.44,1.44,0,0,0-.22.4.71.71,0,0,0,.08.46,1.6,1.6,0,0,0,.63-1.15.63.63,0,0,1,.34-.6,1.31,1.31,0,0,0,.34-.24c.36-.33.34-.54,0-.76.06-.19.1-.35.16-.51s.18-.43.26-.65l.1,0,.05.5.08,0c.1-.15.2-.3.31-.44a13.54,13.54,0,0,1,1-1.24,1.78,1.78,0,0,1,1.62-.59L18,18.8a3.16,3.16,0,0,1,.43-.39c.32-.19.67-.33,1-.51a1.89,1.89,0,0,0,.31-.25l0-.11a1.16,1.16,0,0,0-.37,0c-.36.1-.72.23-1.07.35s-.51.27-.81.09c-.07,0-.23,0-.33.08s-.4.23-.62.37a.6.6,0,0,1,.58-.59l1.07-.14L18,17.43l1.27-.22,0-.11a11.56,11.56,0,0,0-.94-.79.74.74,0,0,0-.51,0c-.27.07-.52.19-.79.27-.06,0-.19,0-.21,0a.31.31,0,0,1,0-.25.8.8,0,0,1,.29-.26c.48-.23.59-.44.46-1a.38.38,0,0,1,0-.15c0-.25.06-.5.1-.74a1.45,1.45,0,0,1,.11-.26l.08,0,0,.3c.36-.1.68-.88.56-1.53l-.38,1c-.22-.47.11-1.6.47-1.62l-.52-2.34a1.52,1.52,0,0,0,.22,0,1.13,1.13,0,0,0,.18-.12c-.05,0-.11-.12-.17-.17A1.61,1.61,0,0,1,18,9.2c-.3-.37-.55-.78-.87-1.13a1.66,1.66,0,0,0-1.65-.49,4,4,0,0,0-1.56.71,1.92,1.92,0,0,0-.33.44,1.29,1.29,0,0,0-1.07.61l0,.07.33-.21c.08,0,.16-.16.24-.15a1.91,1.91,0,0,1,.44.15c-.07.11-.11.27-.22.34s-.45.12-.58.26c-.45.5-1.08.74-1.55,1.18-.86.8-1.67,1.66-2.5,2.5a.42.42,0,0,1-.25.1l.09-.49c-.2.2-.35.36-.25.64,0,.07,0,.18-.07.32L8,13.8a3.56,3.56,0,0,0-.26.31l-.81,1.52a2.14,2.14,0,0,1-.1.22,2.79,2.79,0,0,0,0,2.7l.07.13c.31.52.67.55,1,.05a2.39,2.39,0,0,0,.3-.54,12.6,12.6,0,0,1,2.44-4.05,19.09,19.09,0,0,1,4.74-4.22,8.49,8.49,0,0,1,1.25-.61c.46-.17.67,0,.68.47a7.44,7.44,0,0,1-.43,2.65c-.1.28-.28.53-.2.85a.29.29,0,0,1,0,.09.71.71,0,0,0-.07.64c-.33,0-.44.1-.39.43a1.22,1.22,0,0,1-.12.55c-.1.29-.21.59-.32.88a.74.74,0,0,1-.68.54A1.06,1.06,0,0,1,15,17.46c0,.08-.13.18-.2.18a.61.61,0,0,0-.51.37,8.62,8.62,0,0,0-.61,1c-.11.24-.24.54.12.75.14.08,0,.28-.23.37a1.24,1.24,0,0,1,0-.16.68.68,0,0,1,0-.14c-.29.05-.44.32-.44.79l.19-.06a.37.37,0,0,1,.24-.06l-.5.76,0-.58c-.62.33-.71,1-1.17,1.39l.2-.66-.08,0a1.67,1.67,0,0,0-.28.18L7.87,25c-.11.11-.18.26-.29.37a2.78,2.78,0,0,1-.66.58,1.84,1.84,0,0,0-.88.84,2,2,0,0,1-.21.3Zm16-8.53-.09-.06a3.66,3.66,0,0,0,.25-.62,5.07,5.07,0,0,0,.23-1.08,1.2,1.2,0,0,0-.51-1c-.23-.17-.38-.12-.48.14a1.87,1.87,0,0,1-.15.32c-.48.77-1,1.54-1.46,2.31-.95,1.51-1.91,3-2.83,4.53a3,3,0,0,0-.27,1c-.07.48.25.83.47,1.19a.38.38,0,0,0,.66,0c.29-.29.54-.63.81-.94l3-3.39a4,4,0,0,1,.4-.32.46.46,0,0,1,0,.13,2.15,2.15,0,0,1-.14.26,2,2,0,0,0,.14,2.36c.29.46.51.47.9.1q1.79-1.67,3.56-3.36a7.17,7.17,0,0,0,1.56-1.6.18.18,0,0,1,.1-.07l.57-.23c-.23.66-.48,1.35-.73,2.05a.59.59,0,0,0-.06.36c.24.64.47,1.28.77,1.89a.86.86,0,0,0,1,.43,2.86,2.86,0,0,0,.73-.43,1.28,1.28,0,0,0,.24-.35L30.09,22,29.93,22c.2-.24.4-.45.56-.68a1.17,1.17,0,0,0,.11-.36l-.39.13a.11.11,0,0,0-.06.07.85.85,0,0,1-1.22.1c.19-.48.39-.95.54-1.44.23-.78.45-1.57.64-2.37.1-.39.13-.77-.34-1a1.86,1.86,0,0,1-.51-.5,1.38,1.38,0,0,1-.15-.25,45,45,0,0,0-4,3.2,10.38,10.38,0,0,1,.4-1.15.65.65,0,0,0-.19-.8,8.35,8.35,0,0,1-.6-.59c-.29-.32-.53-.3-.75.07a.7.7,0,0,0-.11.21c0,.14,0,.28-.06.42l.38-.09a1.55,1.55,0,0,1,0,.21,3,3,0,0,1-.89,1.28c-1.12,1.09-2.27,2.15-3.4,3.23l-.24.18a.21.21,0,0,1,0-.19c.36-.45.72-.89,1.1-1.32a1.08,1.08,0,0,0,.34-.88c0-.13.08-.26.12-.39l.09,0-.06.49c.56-.19,1.21-1.12,1-1.43ZM17,3.84a1.51,1.51,0,0,0,0,3,1.51,1.51,0,1,0,0-3ZM10.07,21.5c.19-.57,1-.56,1.17-1.14C10.74,20.35,10,21.07,10.07,21.5Zm12.59-3.69.09.09a2.25,2.25,0,0,0,.82-.8l-.1-.1Zm-10.82,2,.12.18c.17-.1.34-.18.5-.29s0-.14,0-.22-.16,0-.21,0S12,19.66,11.84,19.76ZM10.38,11l.14.13.66-.68-.09-.09Zm.94,9.09.23.23c.06-.1.16-.18.17-.28s-.12-.14-.18-.21Zm.3-10,0,.08.63-.18C12,9.76,11.81,9.8,11.62,10.06ZM9.19,12.45c-.41.11-.49.25-.3.53ZM31.28,20l.06.16.32-.13a.78.78,0,0,0-.05-.14Z"/><path class="cls-1" d="M11.12,22.51l-.18.3.06.09.81-.5s0,0,0,.06a40.7,40.7,0,0,1-3.77,6,4.24,4.24,0,0,1-.7.63.36.36,0,0,1-.27,0S7,28.93,7,28.85a2.82,2.82,0,0,1,.36-1.33.36.36,0,0,0,.06-.25.59.59,0,0,1,.29-.66c.09-.07.11-.23.16-.36A2.13,2.13,0,0,1,8,25.92,5.68,5.68,0,0,1,9.72,24a4.1,4.1,0,0,0,.78-.87c.19-.22.35-.46.52-.69Z"/><path class="cls-1" d="M8.32,29c.12.06.28.37.49,0s0-.39-.27-.49a1.34,1.34,0,0,0,.93-.71c.51-.8,1-1.61,1.48-2.42a2.14,2.14,0,0,0,.12-.34l-.44.15a3.47,3.47,0,0,1,.21-.52c.34-.54.68-1.09,1.06-1.61a3.07,3.07,0,0,1,.56-.43,2.86,2.86,0,0,0,.4-.38,1.71,1.71,0,0,1,1-.69c-.18.72-.8,1.2-.87,1.9-.19.27-.38.55-.59.82s-.36.48-.56.71a.59.59,0,0,0,0,.66c.13.15.22,0,.28-.07s.21-.42.33-.65a1.47,1.47,0,0,1-.62,1.25c-.39-.4-.77-.28-.92.29-.06.2-.1.39-.14.58a.77.77,0,0,1-.65.65,2.05,2.05,0,0,0-.41.22,2.07,2.07,0,0,0,.39.34c.07,0,.22,0,.31-.06s.14-.15.21-.23l.1.07-.5.9-.08,0,0-.36-.62,0a.83.83,0,0,0,0,.16.57.57,0,0,1-.28.6,10.75,10.75,0,0,0-.87.78c-.21.2-.39.42-.68.4a2.49,2.49,0,0,1,0-.55,1.16,1.16,0,0,1,.2-.38Zm3.28-5a1.94,1.94,0,0,0,.76-1.1A2.51,2.51,0,0,0,11.6,24Z"/><path class="cls-1" d="M10.72,25.34a12.4,12.4,0,0,1-1.29,2l-.08-.05,1.25-2Z"/><path class="cls-1" d="M14.08,20l.51-.32-.34-.22a1.58,1.58,0,0,1,.4-.19.32.32,0,0,1,.26.13s0,.19-.07.24-.45.33-.67.49Z"/><path class="cls-1" d="M11.28,26.93c0,.13,0,.29,0,.37s-.23.13-.35.19l-.08-.09.33-.49Z"/><path class="cls-1" d="M12.89,10.63l-.7.43-.08-.13.7-.45Z"/><path class="cls-1" d="M15.27,18.55l-.35.21s-.11-.14-.1-.16a1.37,1.37,0,0,1,.25-.23S15.17,18.46,15.27,18.55Z"/><path class="cls-1" d="M26.69,19.26c-.11,0-.2,0-.25,0a5.31,5.31,0,0,0-1.31,1.12l.27,0a.66.66,0,0,1-.51.52,6.88,6.88,0,0,0-1,.39,1.35,1.35,0,0,1,.05-.29,2.54,2.54,0,0,1,.9-1.35,12.88,12.88,0,0,0,1.11-1c.31-.26.66-.5,1-.75l.18-.14c.42-.35.83-.7,1.25-1a1,1,0,0,1,.37-.1c0,.13,0,.3-.06.38a6.11,6.11,0,0,1-.89.94A3,3,0,0,0,26.69,19.26Z"/><path class="cls-1" d="M21.61,22a4.24,4.24,0,0,1,2.82-3c0,.05,0,.1-.06.13l-1.78,1.69a6,6,0,0,0-.56.67C21.9,21.57,21.78,21.73,21.61,22Zm1.7-2.19.1.08c.19-.15.41-.27.43-.54l-.1-.08Z"/><path d="M23.41,19.85l-.1-.08"/><text class="cls-2" transform="translate(40.15 28.95)">DESIGN</text></svg>