<?xml version="1.0" encoding="utf-8"?>
<!-- Generator: Adobe Illustrator 24.3.0, SVG Export Plug-In . SVG Version: 6.00 Build 0)  -->
<svg version="1.1" xmlns="http://www.w3.org/2000/svg" xmlns:xlink="http://www.w3.org/1999/xlink" x="0px" y="0px"
	 viewBox="0 0 157.5 34.6" style="enable-background:new 0 0 157.5 34.6;" xml:space="preserve">
<style type="text/css">
	.st0{display:none;}
	.st1{display:inline;fill:#FFFFFF;}
	.st2{display:inline;}
	.st3{fill:#231F20;}
	.st4{font-family:'ArialRoundedMTBold';}
	.st5{font-size:30.1552px;}
	.st6{fill:#FFFFFF;}
	.st7{font-size:20.6304px;}
</style>
<g id="Layer_4" class="st0">
	<rect class="st1" width="121.7" height="34.6"/>
</g>
<g id="Layer_1" class="st0">
	<g class="st2">
		<path d="M27.4,31.4c0,0.7-0.3,1.4-0.8,1.9c-0.6,0.6-1.2,0.8-2,0.8c-0.8,0-1.5-0.3-2.2-1L6.7,18.4v12.8c0,0.9-0.3,1.7-0.8,2.2
			c-0.6,0.6-1.3,0.9-2.2,0.9c-0.9,0-1.7-0.3-2.2-0.9c-0.6-0.6-0.8-1.3-0.8-2.2V3.4c0-0.9,0.3-1.6,0.8-2.2c0.6-0.6,1.3-0.8,2.2-0.8
			c0.9,0,1.7,0.3,2.2,0.8c0.6,0.6,0.8,1.3,0.8,2.2v12.2L21.9,1.3c0.6-0.6,1.2-0.9,1.9-0.9c0.7,0,1.4,0.3,1.9,0.8
			c0.6,0.6,0.8,1.2,0.8,1.9s-0.3,1.4-0.9,2L12.9,16.8l13.5,12.6C27.1,30,27.4,30.7,27.4,31.4z"/>
		<path d="M46.2,10.9c0.5,0.4,0.7,1,0.7,1.8c0,0.9-0.2,1.5-0.6,1.9c-0.4,0.4-1.2,0.7-2.2,0.8l-1.4,0.1c-1.9,0.2-3.2,0.8-4.1,1.9
			c-0.9,1.1-1.3,2.4-1.3,4v9.9c0,0.9-0.3,1.6-0.9,2.1c-0.6,0.5-1.3,0.7-2.1,0.7c-0.9,0-1.6-0.2-2.1-0.7c-0.6-0.5-0.8-1.2-0.8-2.1
			V13.1c0-0.9,0.3-1.6,0.8-2c0.6-0.5,1.2-0.7,2.1-0.7c0.8,0,1.5,0.2,2,0.7c0.5,0.5,0.8,1.1,0.8,2v1.9c0.6-1.4,1.5-2.5,2.7-3.2
			c1.2-0.8,2.5-1.2,4-1.3l0.7,0C45,10.3,45.7,10.5,46.2,10.9z"/>
		<path d="M53.3,32.9c-1.8-1-3.2-2.4-4.1-4.2c-1-1.8-1.5-4-1.5-6.4s0.5-4.6,1.5-6.4c1-1.8,2.4-3.2,4.1-4.2c1.8-1,3.9-1.5,6.2-1.5
			c2.4,0,4.4,0.5,6.2,1.5c1.8,1,3.2,2.4,4.1,4.2c1,1.8,1.4,3.9,1.4,6.4s-0.5,4.6-1.4,6.4c-1,1.8-2.3,3.2-4.1,4.2
			c-1.8,1-3.9,1.5-6.2,1.5C57.1,34.4,55.1,33.9,53.3,32.9z M63.9,27.9c1-1.3,1.5-3.1,1.5-5.6c0-2.4-0.5-4.3-1.5-5.6
			c-1-1.3-2.5-1.9-4.4-1.9c-1.9,0-3.4,0.6-4.4,1.9c-1,1.3-1.5,3.1-1.5,5.6c0,2.5,0.5,4.3,1.5,5.6c1,1.3,2.5,1.9,4.4,1.9
			C61.4,29.8,62.9,29.1,63.9,27.9z"/>
		<path d="M95.4,31.8c0,0.7-0.2,1.2-0.7,1.6c-0.4,0.4-1.1,0.6-2,0.6H77c-0.8,0-1.4-0.3-1.9-0.8c-0.5-0.5-0.8-1.1-0.8-1.8
			c0-0.7,0.3-1.4,0.9-2.1l12.2-14.1H76.7c-0.9,0-1.5-0.2-2-0.6c-0.4-0.4-0.7-0.9-0.7-1.7c0-0.7,0.2-1.3,0.7-1.7
			c0.4-0.4,1.1-0.6,2-0.6H92c0.8,0,1.5,0.2,2,0.7c0.5,0.5,0.7,1.1,0.7,1.8c0,0.8-0.3,1.5-0.8,2.1L81.7,29.5h11.1
			C94.6,29.5,95.4,30.3,95.4,31.8z"/>
		<path d="M103.4,32.9c-1.8-1-3.2-2.4-4.1-4.2c-1-1.8-1.5-4-1.5-6.4s0.5-4.6,1.5-6.4c1-1.8,2.4-3.2,4.1-4.2c1.8-1,3.9-1.5,6.2-1.5
			c2.4,0,4.4,0.5,6.2,1.5c1.8,1,3.2,2.4,4.1,4.2c1,1.8,1.4,3.9,1.4,6.4s-0.5,4.6-1.4,6.4c-1,1.8-2.3,3.2-4.1,4.2
			c-1.8,1-3.9,1.5-6.2,1.5C107.3,34.4,105.2,33.9,103.4,32.9z M114,27.9c1-1.3,1.5-3.1,1.5-5.6c0-2.4-0.5-4.3-1.5-5.6
			c-1-1.3-2.5-1.9-4.4-1.9c-1.9,0-3.4,0.6-4.4,1.9c-1,1.3-1.5,3.1-1.5,5.6c0,2.5,0.5,4.3,1.5,5.6s2.5,1.9,4.4,1.9
			C111.5,29.8,113,29.1,114,27.9z"/>
	</g>
</g>
<g id="Layer_2">
	<g>
		<path class="st3" d="M5.7,27c0.1-1,0.8-1.7,1.2-2.6c-0.6,0.2-0.7,0.8-1.2,1.1c0-0.2,0-0.3,0.1-0.6c-0.6,0.9-1.2,1.7-1,2.8
			c-0.3-0.5-0.7-1-1-1.5c-4.1-6.5-3.3-14.9,2-20.4c6.5-6.8,17.4-6.9,24-0.2c4.9,5,6.2,12.6,3.1,18.9c-2.6,5.3-6.9,8.4-12.8,9.3
			c-4,0.6-7.7-0.3-11.1-2.4c-0.3-0.2-0.3-0.3-0.1-0.4c0.7-0.4,1.1-1.1,1.5-1.7c0.8-1.3,1.6-2.7,2.4-4c0.1-0.1,0.1-0.2,0.2-0.3
			c-0.4-0.1-0.4-0.2-0.3-0.5c0.1-0.2,0.2-0.5,0.4-0.7c0.1-0.1,0.2-0.1,0.2-0.2c-0.1,0.1-0.2,0.3-0.2,0.4c0,0.1,0,0.3,0.1,0.5
			c0.3-0.3,0.6-0.7,0.6-1.1c0-0.3,0.1-0.5,0.3-0.6c0.1-0.1,0.2-0.1,0.3-0.2c0.4-0.3,0.3-0.5,0-0.8c0.1-0.2,0.1-0.4,0.2-0.5
			c0.1-0.2,0.2-0.4,0.3-0.7c0,0,0.1,0,0.1,0c0,0.2,0,0.3,0,0.5c0,0,0.1,0,0.1,0c0.1-0.1,0.2-0.3,0.3-0.4c0.3-0.4,0.6-0.9,1-1.2
			c0.4-0.4,1-0.7,1.6-0.6c0,0,0-0.1-0.1-0.1c0.1-0.1,0.3-0.3,0.4-0.4c0.3-0.2,0.7-0.3,1-0.5c0.1-0.1,0.2-0.2,0.3-0.3
			c0,0,0-0.1,0-0.1c-0.1,0-0.3-0.1-0.4,0c-0.4,0.1-0.7,0.2-1.1,0.4C18,18,17.8,18.2,17.5,18c-0.1,0-0.2,0-0.3,0.1
			c-0.2,0.1-0.4,0.2-0.6,0.4c0.1-0.4,0.2-0.5,0.6-0.6c0.3-0.1,0.7-0.1,1.1-0.1c-0.1-0.1-0.1-0.2-0.2-0.3c0.4-0.1,0.9-0.2,1.3-0.2
			c0,0,0-0.1,0-0.1c-0.3-0.3-0.6-0.6-0.9-0.8c-0.1-0.1-0.3,0-0.5,0c-0.3,0.1-0.5,0.2-0.8,0.3c-0.1,0-0.2,0-0.2,0c0-0.1,0-0.2,0-0.2
			c0.1-0.1,0.2-0.2,0.3-0.3c0.5-0.2,0.6-0.4,0.5-0.9c0,0,0-0.1,0-0.1c0-0.2,0.1-0.5,0.1-0.7c0-0.1,0.1-0.2,0.1-0.3c0,0,0.1,0,0.1,0
			c0,0.1,0,0.2,0,0.3c0.4-0.1,0.7-0.9,0.6-1.5c-0.1,0.3-0.2,0.6-0.4,1c-0.2-0.5,0.1-1.6,0.5-1.6c-0.2-0.8-0.3-1.6-0.5-2.3
			c0.1,0,0.2,0,0.2,0c0.1,0,0.1-0.1,0.2-0.1c-0.1-0.1-0.1-0.1-0.2-0.2c-0.1-0.1-0.2-0.1-0.3-0.2c-0.3-0.4-0.5-0.8-0.9-1.1
			c-0.4-0.5-1-0.6-1.7-0.5c-0.6,0.1-1.1,0.4-1.6,0.7c-0.1,0.1-0.2,0.3-0.3,0.4c-0.4,0-0.8,0.2-1.1,0.6c0,0,0,0,0,0.1
			c0.1-0.1,0.2-0.1,0.3-0.2C13,9.1,13.1,9,13.1,9c0.2,0,0.3,0.1,0.4,0.2c-0.1,0.1-0.1,0.3-0.2,0.3c-0.2,0.1-0.5,0.1-0.6,0.3
			c-0.4,0.5-1.1,0.7-1.6,1.2c-0.9,0.8-1.7,1.7-2.5,2.5c-0.1,0.1-0.1,0.1-0.3,0.1c0-0.1,0.1-0.3,0.1-0.5c-0.2,0.2-0.3,0.4-0.2,0.6
			c0,0.1,0,0.2-0.1,0.3c-0.1-0.1-0.2-0.2-0.3-0.2c-0.1,0.1-0.2,0.2-0.3,0.3c-0.3,0.5-0.5,1-0.8,1.5c0,0.1-0.1,0.1-0.1,0.2
			c-0.5,0.9-0.4,1.8,0,2.7c0,0,0,0.1,0.1,0.1c0.3,0.5,0.7,0.6,1,0.1c0.1-0.2,0.2-0.4,0.3-0.5c0.5-1.5,1.4-2.8,2.4-4
			c1.4-1.6,2.9-3.1,4.7-4.2c0.4-0.2,0.8-0.4,1.3-0.6c0.5-0.2,0.7,0,0.7,0.5c0,0.9-0.1,1.8-0.4,2.7c-0.1,0.3-0.3,0.5-0.2,0.9
			c0,0,0,0.1,0,0.1c-0.1,0.3-0.1,0.3-0.1,0.6c-0.3,0-0.4,0.1-0.4,0.4c0,0.2-0.1,0.4-0.1,0.5c-0.1,0.3-0.2,0.6-0.3,0.9
			c-0.1,0.3-0.3,0.5-0.7,0.5c0.2,0.4,0.1,0.7-0.1,1c0,0.1-0.1,0.2-0.2,0.2c-0.3,0-0.4,0.2-0.5,0.4c-0.2,0.3-0.5,0.6-0.6,1
			c-0.1,0.2-0.2,0.5,0.1,0.8c0.1,0.1,0,0.3-0.2,0.4c0-0.1,0-0.1,0-0.2c0,0,0-0.1,0-0.1c-0.3,0-0.4,0.3-0.4,0.8c0.1,0,0.1,0,0.2-0.1
			c0.1,0,0.1-0.1,0.2-0.1c-0.1,0.2-0.3,0.5-0.5,0.8c0-0.2,0-0.4,0.1-0.6c-0.6,0.3-0.7,1-1.2,1.4c0.1-0.2,0.1-0.5,0.2-0.7
			c0,0-0.1,0-0.1,0c-0.1,0.1-0.2,0.1-0.3,0.2c-1.3,1.1-2.6,2.3-3.8,3.4c-0.1,0.1-0.2,0.3-0.3,0.4c-0.2,0.2-0.4,0.4-0.7,0.6
			c-0.4,0.2-0.7,0.4-0.9,0.8C6,26.9,5.9,27,5.7,27C5.8,27,5.8,27,5.7,27z M21.8,18.5C21.8,18.5,21.7,18.4,21.8,18.5
			c0-0.3,0.1-0.5,0.2-0.7c0.1-0.4,0.2-0.7,0.2-1.1c0-0.4-0.2-0.7-0.5-1c-0.2-0.2-0.4-0.1-0.5,0.1c0,0.1-0.1,0.2-0.2,0.3
			c-0.5,0.8-1,1.5-1.5,2.3c-0.9,1.5-1.9,3-2.8,4.5c-0.2,0.3-0.2,0.7-0.3,1c-0.1,0.5,0.2,0.8,0.5,1.2c0.2,0.3,0.4,0.3,0.7,0
			c0.3-0.3,0.5-0.6,0.8-0.9c1-1.1,2-2.3,3-3.4c0.1-0.1,0.2-0.2,0.4-0.3c0,0.1,0,0.1,0,0.1c0,0.1-0.1,0.2-0.1,0.3
			c-0.5,0.8-0.4,1.6,0.1,2.4c0.3,0.5,0.5,0.5,0.9,0.1c1.2-1.1,2.4-2.2,3.6-3.4c0.5-0.5,1.2-0.9,1.6-1.6c0,0,0.1-0.1,0.1-0.1
			c0.2-0.1,0.4-0.2,0.6-0.2c-0.2,0.7-0.5,1.3-0.7,2c0,0.1-0.1,0.3-0.1,0.4c0.2,0.6,0.5,1.3,0.8,1.9c0.2,0.4,0.6,0.5,1,0.4
			c0.3-0.1,0.5-0.3,0.7-0.4c0.1-0.1,0.2-0.2,0.2-0.4c-0.1-0.1-0.3-0.1-0.4-0.2c0,0-0.1,0-0.2-0.1c0.2-0.2,0.4-0.4,0.6-0.7
			c0.1-0.1,0.1-0.2,0.1-0.4c-0.1,0-0.3,0.1-0.4,0.1c0,0,0,0-0.1,0.1c-0.3,0.4-0.8,0.4-1.2,0.1c0.2-0.5,0.4-1,0.5-1.4
			c0.2-0.8,0.5-1.6,0.6-2.4c0.1-0.4,0.1-0.8-0.3-1c-0.2-0.1-0.3-0.3-0.5-0.5c-0.1-0.1-0.1-0.2-0.2-0.3c-1.5,0.9-2.7,2.2-4,3.2
			c0.1-0.4,0.2-0.8,0.4-1.2c0.1-0.3,0.1-0.6-0.2-0.8c-0.2-0.2-0.4-0.4-0.6-0.6C24.4,16,24.2,16,24,16.4c0,0.1-0.1,0.1-0.1,0.2
			c0,0.1,0,0.3-0.1,0.4c0.1,0,0.2-0.1,0.4-0.1c0,0.1,0,0.1,0,0.2c-0.2,0.5-0.5,0.9-0.9,1.3c-1.1,1.1-2.3,2.2-3.4,3.2
			c-0.1,0.1-0.2,0.1-0.2,0.2c0-0.1,0-0.1,0-0.2c0.4-0.4,0.7-0.9,1.1-1.3c0.2-0.3,0.4-0.5,0.3-0.9c0-0.1,0.1-0.3,0.1-0.4
			c0,0,0.1,0,0.1,0c0,0.2,0,0.3-0.1,0.5c0.6-0.2,1.2-1.1,1-1.4C22.1,18.2,21.9,18.4,21.8,18.5z M17,3.8c-0.8,0-1.5,0.7-1.5,1.5
			c0,0.8,0.7,1.5,1.5,1.5c0.8,0,1.5-0.7,1.5-1.5C18.5,4.5,17.8,3.8,17,3.8z M10.1,21.5c0.2-0.6,1-0.6,1.2-1.1
			C10.7,20.3,10,21.1,10.1,21.5z M22.7,17.8C22.7,17.8,22.7,17.9,22.7,17.8c0.4-0.1,0.7-0.4,0.9-0.7c0,0-0.1-0.1-0.1-0.1
			C23.2,17.3,22.9,17.5,22.7,17.8z M11.8,19.8c0,0.1,0.1,0.1,0.1,0.2c0.2-0.1,0.3-0.2,0.5-0.3c0,0,0-0.1,0-0.2c-0.1,0-0.2,0-0.2,0
			C12.1,19.5,12,19.7,11.8,19.8z M10.4,11c0,0,0.1,0.1,0.1,0.1c0.2-0.2,0.4-0.5,0.7-0.7c0,0-0.1-0.1-0.1-0.1
			C10.9,10.6,10.6,10.8,10.4,11z M11.3,20.1c0.1,0.1,0.2,0.2,0.2,0.2c0.1-0.1,0.2-0.2,0.2-0.3c0-0.1-0.1-0.1-0.2-0.2
			C11.5,19.9,11.4,20,11.3,20.1z M11.6,10.1C11.6,10.1,11.6,10.1,11.6,10.1c0.2,0,0.4,0,0.7-0.1C12,9.8,11.8,9.8,11.6,10.1z
			 M9.2,12.4c-0.4,0.1-0.5,0.3-0.3,0.5C9,12.8,9.1,12.6,9.2,12.4z M31.3,20c0,0.1,0,0.1,0.1,0.2c0.1,0,0.2-0.1,0.3-0.1
			c0,0,0-0.1,0-0.1C31.5,19.9,31.4,20,31.3,20z"/>
		<path class="st3" d="M11.1,22.5c-0.1,0.1-0.1,0.2-0.2,0.3c0,0,0,0.1,0.1,0.1c0.3-0.2,0.5-0.3,0.8-0.5c0,0,0,0,0,0.1
			c-1.1,2.1-2.3,4.1-3.8,6c-0.2,0.2-0.5,0.4-0.7,0.6c-0.1,0.1-0.2,0.1-0.3,0c0,0-0.1-0.2-0.1-0.2c0.1-0.5,0.1-0.9,0.4-1.3
			c0-0.1,0.1-0.2,0.1-0.3c-0.1-0.3,0.1-0.5,0.3-0.7c0.1-0.1,0.1-0.2,0.2-0.4c0-0.1,0-0.2,0.1-0.3c0.4-0.8,1-1.4,1.7-1.9
			c0.3-0.2,0.5-0.6,0.8-0.9c0.2-0.2,0.3-0.5,0.5-0.7C11.1,22.5,11.1,22.5,11.1,22.5z"/>
		<path class="st3" d="M8.3,29c0.1,0.1,0.3,0.4,0.5,0c0.2-0.3,0-0.4-0.3-0.5c0.5-0.1,0.7-0.4,0.9-0.7c0.5-0.8,1-1.6,1.5-2.4
			c0.1-0.1,0.1-0.2,0.1-0.3c-0.2,0.1-0.3,0.1-0.4,0.1c0.1-0.2,0.1-0.4,0.2-0.5c0.3-0.5,0.7-1.1,1.1-1.6c0.1-0.2,0.4-0.3,0.6-0.4
			c0.1-0.1,0.3-0.2,0.4-0.4c0.3-0.3,0.5-0.6,1-0.7c-0.2,0.7-0.8,1.2-0.9,1.9c-0.2,0.3-0.4,0.5-0.6,0.8c-0.2,0.2-0.4,0.5-0.6,0.7
			c-0.1,0.1-0.2,0.5,0,0.7c0.1,0.1,0.2,0,0.3-0.1c0.1-0.2,0.2-0.4,0.3-0.6c0.1,0.3-0.2,1-0.6,1.2c-0.4-0.4-0.8-0.3-0.9,0.3
			c-0.1,0.2-0.1,0.4-0.1,0.6c-0.1,0.4-0.3,0.6-0.6,0.6c-0.1,0-0.3,0.1-0.4,0.2c0.1,0.1,0.2,0.3,0.4,0.3c0.1,0,0.2,0,0.3-0.1
			c0.1,0,0.1-0.1,0.2-0.2c0,0,0.1,0,0.1,0.1c-0.2,0.3-0.3,0.6-0.5,0.9c0,0-0.1,0-0.1,0c0-0.1,0-0.3,0-0.4c-0.2,0-0.4,0-0.6,0
			c0,0,0,0.1,0,0.2c0,0.3-0.1,0.4-0.3,0.6c-0.3,0.2-0.6,0.5-0.9,0.8c-0.2,0.2-0.4,0.4-0.7,0.4c0-0.2,0-0.4,0-0.6
			c0-0.1,0.1-0.3,0.2-0.4C8,29.4,8.1,29.2,8.3,29z M11.6,24c0.3-0.3,0.7-0.6,0.8-1.1C12,23.1,11.8,23.6,11.6,24z"/>
		<path class="st3" d="M10.7,25.3c-0.3,0.7-0.8,1.4-1.3,2c0,0-0.1,0-0.1-0.1c0.4-0.7,0.8-1.4,1.3-2C10.6,25.3,10.7,25.3,10.7,25.3z"
			/>
		<path class="st3" d="M14.1,20c0.2-0.1,0.3-0.2,0.5-0.3c-0.1-0.1-0.2-0.1-0.3-0.2c0.2-0.1,0.3-0.2,0.4-0.2c0.1,0,0.2,0.1,0.3,0.1
			c0,0,0,0.2-0.1,0.2c-0.2,0.2-0.4,0.3-0.7,0.5C14.1,20.1,14.1,20,14.1,20z"/>
		<path class="st3" d="M11.3,26.9c0,0.1,0,0.3,0,0.4c-0.1,0.1-0.2,0.1-0.3,0.2c0,0-0.1-0.1-0.1-0.1c0.1-0.2,0.2-0.3,0.3-0.5
			C11.2,26.9,11.2,26.9,11.3,26.9z"/>
		<path class="st3" d="M12.9,10.6c-0.2,0.1-0.5,0.3-0.7,0.4c0,0-0.1-0.1-0.1-0.1c0.2-0.1,0.5-0.3,0.7-0.4
			C12.8,10.5,12.9,10.6,12.9,10.6z"/>
		<path class="st3" d="M15.3,18.5c-0.2,0.1-0.2,0.2-0.4,0.2c0,0-0.1-0.1-0.1-0.2c0.1-0.1,0.2-0.2,0.3-0.2
			C15.1,18.4,15.2,18.5,15.3,18.5z"/>
		<path class="st3" d="M26.7,19.3c-0.1,0-0.2,0-0.3,0c-0.5,0.3-0.9,0.7-1.3,1.1c0.1,0,0.2,0,0.3,0c-0.1,0.3-0.2,0.4-0.5,0.5
			c-0.3,0.1-0.7,0.3-1,0.4c0-0.1,0-0.2,0.1-0.3c0.2-0.5,0.4-1,0.9-1.3c0.4-0.3,0.7-0.7,1.1-1c0.3-0.3,0.7-0.5,1-0.7
			c0.1,0,0.1-0.1,0.2-0.1c0.4-0.3,0.8-0.7,1.2-1c0.1-0.1,0.2-0.1,0.4-0.1c0,0.1,0,0.3-0.1,0.4c-0.3,0.3-0.6,0.7-0.9,0.9
			C27.3,18.4,26.9,18.7,26.7,19.3z"/>
		<path class="st3" d="M21.6,22c0-1.1,1.8-3,2.8-3c0,0.1,0,0.1-0.1,0.1c-0.6,0.6-1.2,1.1-1.8,1.7c-0.2,0.2-0.4,0.4-0.6,0.7
			C21.9,21.6,21.8,21.7,21.6,22z M23.3,19.8C23.3,19.8,23.4,19.8,23.3,19.8c0.3-0.1,0.5-0.2,0.5-0.5c0,0-0.1-0.1-0.1-0.1
			C23.6,19.4,23.5,19.6,23.3,19.8z"/>
		<path d="M23.7,19.2"/>
		<path d="M23.4,19.8C23.4,19.8,23.3,19.8,23.4,19.8"/>
	</g>
	<text transform="matrix(1 0 0 1 40.1495 28.9482)" class="st4 st5">DESIGN</text>
</g>
<g id="Layer_3" class="st0">
	<g class="st2">
		<path class="st6" d="M5.4,26.9c0.1-1,0.8-1.7,1.2-2.6c-0.6,0.2-0.7,0.8-1.2,1.1c0-0.2,0-0.3,0.1-0.6c-0.6,0.9-1.2,1.7-1,2.8
			c-0.3-0.5-0.7-1-1-1.5c-4.1-6.5-3.3-14.9,2-20.4C12-1,22.9-1.1,29.4,5.6c4.9,5,6.2,12.6,3.1,18.9c-2.6,5.3-6.9,8.4-12.8,9.3
			c-4,0.6-7.7-0.3-11.1-2.4c-0.3-0.2-0.3-0.3-0.1-0.4c0.7-0.4,1.1-1.1,1.5-1.7c0.8-1.3,1.6-2.7,2.4-4c0.1-0.1,0.1-0.2,0.2-0.3
			c-0.4-0.1-0.4-0.2-0.3-0.5c0.1-0.2,0.2-0.5,0.4-0.7c0.1-0.1,0.2-0.1,0.2-0.2c-0.1,0.1-0.2,0.3-0.2,0.4c0,0.1,0,0.3,0.1,0.5
			c0.3-0.3,0.6-0.7,0.6-1.1c0-0.3,0.1-0.5,0.3-0.6c0.1-0.1,0.2-0.1,0.3-0.2c0.4-0.3,0.3-0.5,0-0.8c0.1-0.2,0.1-0.4,0.2-0.5
			c0.1-0.2,0.2-0.4,0.3-0.7c0,0,0.1,0,0.1,0c0,0.2,0,0.3,0,0.5c0,0,0.1,0,0.1,0c0.1-0.1,0.2-0.3,0.3-0.4c0.3-0.4,0.6-0.9,1-1.2
			c0.4-0.4,1-0.7,1.6-0.6c0,0,0-0.1-0.1-0.1c0.1-0.1,0.3-0.3,0.4-0.4c0.3-0.2,0.7-0.3,1-0.5c0.1-0.1,0.2-0.2,0.3-0.3
			c0,0,0-0.1,0-0.1c-0.1,0-0.3-0.1-0.4,0c-0.4,0.1-0.7,0.2-1.1,0.4c-0.3,0.1-0.5,0.3-0.8,0.1c-0.1,0-0.2,0-0.3,0.1
			c-0.2,0.1-0.4,0.2-0.6,0.4c0.1-0.4,0.2-0.5,0.6-0.6c0.3-0.1,0.7-0.1,1.1-0.1c-0.1-0.1-0.1-0.2-0.2-0.3c0.4-0.1,0.9-0.2,1.3-0.2
			c0,0,0-0.1,0-0.1c-0.3-0.3-0.6-0.6-0.9-0.8c-0.1-0.1-0.3,0-0.5,0c-0.3,0.1-0.5,0.2-0.8,0.3c-0.1,0-0.2,0-0.2,0c0-0.1,0-0.2,0-0.2
			c0.1-0.1,0.2-0.2,0.3-0.3c0.5-0.2,0.6-0.4,0.5-0.9c0,0,0-0.1,0-0.1c0-0.2,0.1-0.5,0.1-0.7c0-0.1,0.1-0.2,0.1-0.3c0,0,0.1,0,0.1,0
			c0,0.1,0,0.2,0,0.3c0.4-0.1,0.7-0.9,0.6-1.5c-0.1,0.3-0.2,0.6-0.4,1c-0.2-0.5,0.1-1.6,0.5-1.6c-0.2-0.8-0.3-1.6-0.5-2.3
			c0.1,0,0.2,0,0.2,0c0.1,0,0.1-0.1,0.2-0.1C18.1,9.5,18,9.4,18,9.4c-0.1-0.1-0.2-0.1-0.3-0.2c-0.3-0.4-0.5-0.8-0.9-1.1
			c-0.4-0.5-1-0.6-1.7-0.5c-0.6,0.1-1.1,0.4-1.6,0.7c-0.1,0.1-0.2,0.3-0.3,0.4c-0.4,0-0.8,0.2-1.1,0.6c0,0,0,0,0,0.1
			c0.1-0.1,0.2-0.1,0.3-0.2C12.7,9.1,12.8,9,12.8,9c0.2,0,0.3,0.1,0.4,0.2c-0.1,0.1-0.1,0.3-0.2,0.3c-0.2,0.1-0.5,0.1-0.6,0.3
			c-0.4,0.5-1.1,0.7-1.6,1.2c-0.9,0.8-1.7,1.7-2.5,2.5c-0.1,0.1-0.1,0.1-0.3,0.1c0-0.1,0.1-0.3,0.1-0.5c-0.2,0.2-0.3,0.4-0.2,0.6
			c0,0.1,0,0.2-0.1,0.3c-0.1-0.1-0.2-0.2-0.3-0.2c-0.1,0.1-0.2,0.2-0.3,0.3c-0.3,0.5-0.5,1-0.8,1.5c0,0.1-0.1,0.1-0.1,0.2
			c-0.5,0.9-0.4,1.8,0,2.7c0,0,0,0.1,0.1,0.1c0.3,0.5,0.7,0.6,1,0.1c0.1-0.2,0.2-0.4,0.3-0.5c0.5-1.5,1.4-2.8,2.4-4
			c1.4-1.6,2.9-3.1,4.7-4.2c0.4-0.2,0.8-0.4,1.3-0.6c0.5-0.2,0.7,0,0.7,0.5c0,0.9-0.1,1.8-0.4,2.7c-0.1,0.3-0.3,0.5-0.2,0.9
			c0,0,0,0.1,0,0.1c-0.1,0.3-0.1,0.3-0.1,0.6c-0.3,0-0.4,0.1-0.4,0.4c0,0.2-0.1,0.4-0.1,0.5c-0.1,0.3-0.2,0.6-0.3,0.9
			c-0.1,0.3-0.3,0.5-0.7,0.5c0.2,0.4,0.1,0.7-0.1,1c0,0.1-0.1,0.2-0.2,0.2c-0.3,0-0.4,0.2-0.5,0.4c-0.2,0.3-0.5,0.6-0.6,1
			c-0.1,0.2-0.2,0.5,0.1,0.8c0.1,0.1,0,0.3-0.2,0.4c0-0.1,0-0.1,0-0.2c0,0,0-0.1,0-0.1c-0.3,0-0.4,0.3-0.4,0.8c0.1,0,0.1,0,0.2-0.1
			c0.1,0,0.1-0.1,0.2-0.1c-0.1,0.2-0.3,0.5-0.5,0.8c0-0.2,0-0.4,0.1-0.6c-0.6,0.3-0.7,1-1.2,1.4c0.1-0.2,0.1-0.5,0.2-0.7
			c0,0-0.1,0-0.1,0c-0.1,0.1-0.2,0.1-0.3,0.2c-1.3,1.1-2.6,2.3-3.8,3.4c-0.1,0.1-0.2,0.3-0.3,0.4c-0.2,0.2-0.4,0.4-0.7,0.6
			c-0.4,0.2-0.7,0.4-0.9,0.8C5.7,26.8,5.6,26.9,5.4,26.9C5.5,27,5.5,27,5.4,26.9z M21.5,18.4C21.4,18.4,21.4,18.4,21.5,18.4
			c0-0.3,0.1-0.5,0.2-0.7c0.1-0.4,0.2-0.7,0.2-1.1c0-0.4-0.2-0.7-0.5-1c-0.2-0.2-0.4-0.1-0.5,0.1c0,0.1-0.1,0.2-0.2,0.3
			c-0.5,0.8-1,1.5-1.5,2.3c-0.9,1.5-1.9,3-2.8,4.5c-0.2,0.3-0.2,0.7-0.3,1c-0.1,0.5,0.2,0.8,0.5,1.2c0.2,0.3,0.4,0.3,0.7,0
			c0.3-0.3,0.5-0.6,0.8-0.9c1-1.1,2-2.3,3-3.4c0.1-0.1,0.2-0.2,0.4-0.3c0,0.1,0,0.1,0,0.1c0,0.1-0.1,0.2-0.1,0.3
			c-0.5,0.8-0.4,1.6,0.1,2.4c0.3,0.5,0.5,0.5,0.9,0.1c1.2-1.1,2.4-2.2,3.6-3.4c0.5-0.5,1.2-0.9,1.6-1.6c0,0,0.1-0.1,0.1-0.1
			c0.2-0.1,0.4-0.2,0.6-0.2c-0.2,0.7-0.5,1.3-0.7,2c0,0.1-0.1,0.3-0.1,0.4c0.2,0.6,0.5,1.3,0.8,1.9c0.2,0.4,0.6,0.5,1,0.4
			c0.3-0.1,0.5-0.3,0.7-0.4c0.1-0.1,0.2-0.2,0.2-0.4c-0.1-0.1-0.3-0.1-0.4-0.2c0,0-0.1,0-0.2-0.1c0.2-0.2,0.4-0.4,0.6-0.7
			c0.1-0.1,0.1-0.2,0.1-0.4c-0.1,0-0.3,0.1-0.4,0.1c0,0,0,0-0.1,0.1c-0.3,0.4-0.8,0.4-1.2,0.1c0.2-0.5,0.4-1,0.5-1.4
			c0.2-0.8,0.5-1.6,0.6-2.4c0.1-0.4,0.1-0.8-0.3-1c-0.2-0.1-0.3-0.3-0.5-0.5c-0.1-0.1-0.1-0.2-0.2-0.3c-1.5,0.9-2.7,2.2-4,3.2
			c0.1-0.4,0.2-0.8,0.4-1.2c0.1-0.3,0.1-0.6-0.2-0.8c-0.2-0.2-0.4-0.4-0.6-0.6c-0.3-0.3-0.5-0.3-0.8,0.1c0,0.1-0.1,0.1-0.1,0.2
			c0,0.1,0,0.3-0.1,0.4c0.1,0,0.2-0.1,0.4-0.1c0,0.1,0,0.1,0,0.2c-0.2,0.5-0.5,0.9-0.9,1.3c-1.1,1.1-2.3,2.2-3.4,3.2
			c-0.1,0.1-0.2,0.1-0.2,0.2c0-0.1,0-0.1,0-0.2c0.4-0.4,0.7-0.9,1.1-1.3c0.2-0.3,0.4-0.5,0.3-0.9c0-0.1,0.1-0.3,0.1-0.4
			c0,0,0.1,0,0.1,0c0,0.2,0,0.3-0.1,0.5c0.6-0.2,1.2-1.1,1-1.4C21.8,18.2,21.6,18.3,21.5,18.4z M16.7,3.8c-0.8,0-1.5,0.7-1.5,1.5
			c0,0.8,0.7,1.5,1.5,1.5c0.8,0,1.5-0.7,1.5-1.5C18.2,4.4,17.5,3.8,16.7,3.8z M9.8,21.4c0.2-0.6,1-0.6,1.2-1.1
			C10.4,20.3,9.7,21,9.8,21.4z M22.3,17.7C22.4,17.8,22.4,17.8,22.3,17.7c0.4-0.1,0.7-0.4,0.9-0.7c0,0-0.1-0.1-0.1-0.1
			C22.9,17.2,22.6,17.5,22.3,17.7z M11.5,19.7c0,0.1,0.1,0.1,0.1,0.2c0.2-0.1,0.3-0.2,0.5-0.3c0,0,0-0.1,0-0.2c-0.1,0-0.2,0-0.2,0
			C11.8,19.5,11.7,19.6,11.5,19.7z M10.1,10.9c0,0,0.1,0.1,0.1,0.1c0.2-0.2,0.4-0.5,0.7-0.7c0,0-0.1-0.1-0.1-0.1
			C10.5,10.5,10.3,10.7,10.1,10.9z M11,20c0.1,0.1,0.2,0.2,0.2,0.2c0.1-0.1,0.2-0.2,0.2-0.3c0-0.1-0.1-0.1-0.2-0.2
			C11.2,19.8,11.1,19.9,11,20z M11.3,10C11.3,10,11.3,10,11.3,10c0.2,0,0.4,0,0.7-0.1C11.7,9.7,11.5,9.7,11.3,10z M8.9,12.4
			c-0.4,0.1-0.5,0.3-0.3,0.5C8.7,12.7,8.8,12.5,8.9,12.4z M31,19.9c0,0.1,0,0.1,0.1,0.2c0.1,0,0.2-0.1,0.3-0.1c0,0,0-0.1,0-0.1
			C31.2,19.8,31.1,19.9,31,19.9z"/>
		<path class="st6" d="M10.8,22.4c-0.1,0.1-0.1,0.2-0.2,0.3c0,0,0,0.1,0.1,0.1c0.3-0.2,0.5-0.3,0.8-0.5c0,0,0,0,0,0.1
			c-1.1,2.1-2.3,4.1-3.8,6C7.5,28.6,7.3,28.8,7,29C7,29,6.8,29,6.8,29c0,0-0.1-0.2-0.1-0.2c0.1-0.5,0.1-0.9,0.4-1.3
			c0-0.1,0.1-0.2,0.1-0.3c-0.1-0.3,0.1-0.5,0.3-0.7c0.1-0.1,0.1-0.2,0.2-0.4c0-0.1,0-0.2,0.1-0.3c0.4-0.8,1-1.4,1.7-1.9
			c0.3-0.2,0.5-0.6,0.8-0.9c0.2-0.2,0.3-0.5,0.5-0.7C10.7,22.4,10.8,22.4,10.8,22.4z"/>
		<path class="st6" d="M8,28.9c0.1,0.1,0.3,0.4,0.5,0c0.2-0.3,0-0.4-0.3-0.5c0.5-0.1,0.7-0.4,0.9-0.7c0.5-0.8,1-1.6,1.5-2.4
			c0.1-0.1,0.1-0.2,0.1-0.3c-0.2,0.1-0.3,0.1-0.4,0.1c0.1-0.2,0.1-0.4,0.2-0.5c0.3-0.5,0.7-1.1,1.1-1.6c0.1-0.2,0.4-0.3,0.6-0.4
			c0.1-0.1,0.3-0.2,0.4-0.4c0.3-0.3,0.5-0.6,1-0.7c-0.2,0.7-0.8,1.2-0.9,1.9c-0.2,0.3-0.4,0.5-0.6,0.8c-0.2,0.2-0.4,0.5-0.6,0.7
			c-0.1,0.1-0.2,0.5,0,0.7c0.1,0.1,0.2,0,0.3-0.1c0.1-0.2,0.2-0.4,0.3-0.6c0.1,0.3-0.2,1-0.6,1.2c-0.4-0.4-0.8-0.3-0.9,0.3
			c-0.1,0.2-0.1,0.4-0.1,0.6c-0.1,0.4-0.3,0.6-0.6,0.6c-0.1,0-0.3,0.1-0.4,0.2c0.1,0.1,0.2,0.3,0.4,0.3c0.1,0,0.2,0,0.3-0.1
			c0.1,0,0.1-0.1,0.2-0.2c0,0,0.1,0,0.1,0.1c-0.2,0.3-0.3,0.6-0.5,0.9c0,0-0.1,0-0.1,0c0-0.1,0-0.3,0-0.4c-0.2,0-0.4,0-0.6,0
			c0,0,0,0.1,0,0.2c0,0.3-0.1,0.4-0.3,0.6C8.6,29.5,8.3,29.8,8,30c-0.2,0.2-0.4,0.4-0.7,0.4c0-0.2,0-0.4,0-0.6
			c0-0.1,0.1-0.3,0.2-0.4C7.7,29.3,7.8,29.1,8,28.9z M11.3,23.9c0.3-0.3,0.7-0.6,0.8-1.1C11.7,23.1,11.5,23.5,11.3,23.9z"/>
		<path class="st6" d="M10.4,25.3c-0.3,0.7-0.8,1.4-1.3,2c0,0-0.1,0-0.1-0.1c0.4-0.7,0.8-1.4,1.3-2C10.3,25.2,10.4,25.2,10.4,25.3z"
			/>
		<path class="st6" d="M13.8,19.9c0.2-0.1,0.3-0.2,0.5-0.3c-0.1-0.1-0.2-0.1-0.3-0.2c0.2-0.1,0.3-0.2,0.4-0.2c0.1,0,0.2,0.1,0.3,0.1
			c0,0,0,0.2-0.1,0.2c-0.2,0.2-0.4,0.3-0.7,0.5C13.8,20,13.8,19.9,13.8,19.9z"/>
		<path class="st6" d="M11,26.9c0,0.1,0,0.3,0,0.4c-0.1,0.1-0.2,0.1-0.3,0.2c0,0-0.1-0.1-0.1-0.1c0.1-0.2,0.2-0.3,0.3-0.5
			C10.9,26.8,10.9,26.8,11,26.9z"/>
		<path class="st6" d="M12.6,10.5c-0.2,0.1-0.5,0.3-0.7,0.4c0,0-0.1-0.1-0.1-0.1c0.2-0.1,0.5-0.3,0.7-0.4
			C12.5,10.4,12.6,10.5,12.6,10.5z"/>
		<path class="st6" d="M15,18.5c-0.2,0.1-0.2,0.2-0.4,0.2c0,0-0.1-0.1-0.1-0.2c0.1-0.1,0.2-0.2,0.3-0.2C14.8,18.3,14.9,18.4,15,18.5
			z"/>
		<path class="st6" d="M26.4,19.2c-0.1,0-0.2,0-0.3,0c-0.5,0.3-0.9,0.7-1.3,1.1c0.1,0,0.2,0,0.3,0c-0.1,0.3-0.2,0.4-0.5,0.5
			c-0.3,0.1-0.7,0.3-1,0.4c0-0.1,0-0.2,0.1-0.3c0.2-0.5,0.4-1,0.9-1.3c0.4-0.3,0.7-0.7,1.1-1c0.3-0.3,0.7-0.5,1-0.7
			c0.1,0,0.1-0.1,0.2-0.1c0.4-0.3,0.8-0.7,1.2-1c0.1-0.1,0.2-0.1,0.4-0.1c0,0.1,0,0.3-0.1,0.4c-0.3,0.3-0.6,0.7-0.9,0.9
			C27,18.3,26.6,18.7,26.4,19.2z"/>
		<path class="st6" d="M21.3,21.9c0-1.1,1.8-3,2.8-3c0,0.1,0,0.1-0.1,0.1c-0.6,0.6-1.2,1.1-1.8,1.7c-0.2,0.2-0.4,0.4-0.6,0.7
			C21.6,21.5,21.5,21.7,21.3,21.9z M23,19.7C23,19.7,23.1,19.7,23,19.7c0.3-0.1,0.5-0.2,0.5-0.5c0,0-0.1-0.1-0.1-0.1
			C23.3,19.3,23.1,19.5,23,19.7z"/>
		<path class="st6" d="M23.4,19.1"/>
		<path class="st6" d="M23.1,19.8C23.1,19.7,23,19.7,23.1,19.8"/>
	</g>
	<text transform="matrix(1 0 0 1 40.3417 23.7653)" class="st1 st4 st7">DESIGN</text>
</g>
</svg>
