<svg id="Layer_1" data-name="Layer 1" xmlns="http://www.w3.org/2000/svg" viewBox="0 0 1936.82 561.71"><g id="Layer_0_Image" data-name="Layer 0 Image"><path d="M164.1,485.8c1.8-16.8,13.2-29.4,20.8-43.8-9.5,3.1-11.4,14.1-20.8,19.1.4-3.5.7-5.8,1.1-9.5-10.4,14.7-20.7,27.9-16.8,46.9-5.8-8.3-11.8-16.3-17.2-24.8a280.64,280.64,0,0,1,33.9-344C274.3,14.9,457.7,13.4,568.7,126.5c83,84.6,104.8,212,52.2,318.8C577,534.5,504.3,586.9,406,601.3c-67,9.9-129.9-4.6-187.6-40.5-4.3-2.7-4.9-4.6-.9-6.8,11.9-6.7,18.8-17.8,25.7-28.7,14.1-22.2,27.5-44.9,41.1-67.4,1-1.7,1.7-3.6,2.6-5.4-5.9-1.1-7.5-3.1-5.5-8.6,1.5-4.1,4.2-7.9,6.8-11.5.9-1.3,3.1-1.6,3.7-3-1.3,2.2-3.2,4.3-3.8,6.7s.3,5,1.4,7.8c5.7-5.4,10.6-11.2,10.6-19.3,0-4.9,1.8-7.8,5.8-10a28.39,28.39,0,0,0,5.7-4.1c6-5.5,5.8-9.2.2-12.8,1-3.1,1.6-5.9,2.6-8.6,1.4-3.7,2.9-7.3,4.4-11,.6.2,1.1.3,1.7.5.3,2.8.6,5.6.8,8.4.4.2.9.3,1.3.5,1.8-2.4,3.4-5,5.3-7.3,5.5-7.1,10.6-14.6,16.8-20.9,7.2-7.3,16.2-11.7,27.3-10-.4-.6-.8-1.2-1.2-1.7,2.4-2.2,4.5-5,7.2-6.6,5.4-3.2,11.3-5.6,16.9-8.6,1.9-1,3.4-2.8,5.1-4.3-.2-.6-.3-1.1-.5-1.7-2.1-.1-4.4-.9-6.3-.3-6,1.8-12,4-17.9,6-4.4,1.6-8.6,4.5-13.7,1.4-1.2-.7-3.8.5-5.5,1.4-3.5,1.8-6.8,4-10.5,6.2.9-6.1,3.5-8.8,9.9-9.8,5.7-.9,11.4-1.6,17.9-2.4-1.2-1.8-2-2.8-3.1-4.3,7.4-1.3,14.5-2.5,21.5-3.8l.6-1.8c-5.2-4.5-10.2-9.4-15.9-13.2-2-1.3-5.8-.7-8.6,0-4.5,1.1-8.8,3.1-13.2,4.6-1.1.4-3.4.4-3.6-.1a4.91,4.91,0,0,1-.1-4.1,13.48,13.48,0,0,1,5-4.5c8-3.8,9.8-7.3,7.7-16a6.92,6.92,0,0,1-.1-2.5c.5-4.2,1-8.4,1.8-12.5a23,23,0,0,1,1.8-4.3l1.5.3c.2,1.6.4,3.3.5,4.9,6-1.6,11.3-14.8,9.3-25.7-2.1,5.3-4.1,10.6-6.3,16.4-3.7-7.8,1.8-26.8,7.8-27.2-2.9-13.1-5.7-26.2-8.6-39.5,2.1-.4,3-.4,3.7-.8a20.45,20.45,0,0,0,3.1-2c-1-1-1.9-2-2.9-2.9-1.6-1.4-3.6-2.4-4.8-4.1-4.9-6.3-9.2-13.1-14.6-19-7.4-8.1-17-10.6-27.9-8.3a65.07,65.07,0,0,0-26.2,11.9c-2.1,1.6-3.4,4.3-5.6,7.4-7.1-.1-13.3,3.7-18,10.4a7.46,7.46,0,0,0,.7,1.2c1.8-1.2,3.6-2.3,5.5-3.5,1.4-.9,2.8-2.7,4.1-2.6,2.5.3,5,1.6,7.5,2.5-1.2,1.9-1.9,4.6-3.6,5.7-3,1.9-7.7,2-9.8,4.5-7.5,8.4-18.2,12.5-26.1,19.9-14.5,13.5-28.1,28-42,42a6.1,6.1,0,0,1-4.2,1.7c.5-2.5.9-5,1.5-8.2-3.3,3.4-5.9,6.1-4.1,10.8.5,1.2-.7,3-1.3,5.4-1.9-1.8-2.9-2.8-4.4-4.2-1.5,1.8-3.3,3.3-4.4,5.3-4.7,8.5-9.1,17-13.6,25.6-.6,1.2-1.1,2.5-1.8,3.6-9.2,15.1-6.8,30.3-.2,45.5a15.05,15.05,0,0,0,1.1,2.2c5.1,8.9,11.3,9.3,17.3.9a35.69,35.69,0,0,0,5-9.2c8.8-25.7,23.9-47.6,41.1-68.1,23.1-27.6,48.9-52.4,79.9-71.1a136.73,136.73,0,0,1,21.1-10.2c7.7-2.9,11.2-.3,11.4,7.8a130.48,130.48,0,0,1-7.2,44.7c-1.7,4.8-4.6,9-3.4,14.4a2.88,2.88,0,0,1-.3,1.5c-2.3,5.8-2.3,5.8-1.2,10.7-5.5-.5-7.3,1.8-6.5,7.4.4,2.9-1.1,6.2-2.1,9.1-1.7,5-3.4,10-5.4,14.9s-5.2,8.8-11.4,9c3.4,6.3,1.4,12.1-1.4,17.7-.7,1.3-2.3,3.1-3.5,3.1-4.4.1-6.4,3-8.4,6.2-3.5,5.6-7.7,10.9-10.4,16.9-1.8,4-4,9.1,2.1,12.7,2.3,1.3.3,4.6-4,6.1l-.6-2.7a22.31,22.31,0,0,1-.4-2.3c-4.7.8-7.3,5.5-7.3,13.3,1.1-.4,2.1-.6,3.1-1a6.33,6.33,0,0,1,4.1-1c-2.5,3.9-5,7.8-8.3,12.9.3-3.9.5-6.2.9-9.8-10.4,5.4-11.9,16.6-19.7,23.4,1.3-4.2,2.3-7.6,3.3-11.1-.4-.3-.9-.5-1.3-.8a31.16,31.16,0,0,0-4.9,3.1q-32.25,28.8-64.4,57.7c-1.9,1.7-3,4.4-4.9,6.3-3.5,3.5-6.9,7.5-11.1,9.7-6.5,3.4-11.7,7.5-14.9,14.1a42,42,0,0,1-3.5,5.1A6.09,6.09,0,0,0,164.1,485.8ZM434.3,342.2c-.5-.4-1-.7-1.5-1.1,1.5-3.4,3.3-6.8,4.3-10.3,1.6-6,3.6-12.2,3.8-18.3.2-6.7-3-12.6-8.6-16.7-3.8-2.9-6.3-2-8,2.3a38.23,38.23,0,0,1-2.6,5.4c-8.1,13-16.4,25.9-24.5,38.9-16,25.4-32.2,50.6-47.7,76.3-3,5-3.6,11.6-4.5,17.6-1.2,8,4.2,13.9,7.9,20,2.7,4.5,7.2,4.7,11.1.8,4.9-4.9,9-10.6,13.7-15.9,16.9-19,33.8-38.1,50.9-57,1.7-1.9,4.1-3.3,6.8-5.4a17.4,17.4,0,0,1-.3,2.1c-.8,1.5-1.5,3-2.4,4.4-8.8,13.8-6,27.1,2.3,39.8,5,7.6,8.7,7.8,15.2,1.7,20-18.8,40.1-37.6,59.9-56.7,9.1-8.7,20.2-15.5,26.4-27a4.43,4.43,0,0,1,1.5-1.2c3.3-1.3,6.6-2.6,9.7-3.9-4,11-8.2,22.7-12.3,34.5-.7,2-1.8,4.5-1.1,6.2,4,10.7,8,21.5,13,31.8,2.9,6.1,10.6,9.1,17.2,7.1,4.4-1.4,8.5-4.3,12.3-7.1,1.8-1.3,2.7-4,4-6-2.2-1-4.3-2-6.5-2.9-.7-.3-1.4-.7-2.6-1.3,3.3-4,6.6-7.5,9.4-11.3,1.1-1.6,1.2-4,1.7-6-2.2.7-4.4,1.4-6.5,2.2-.4.2-.7.7-1.1,1-5.7,6.5-13.1,7-20.4,1.8,3.1-8.2,6.5-16.1,9-24.3,4-13.2,7.6-26.5,10.9-39.9,1.6-6.5,2.1-13-5.9-16.9-3.4-1.7-5.8-5.4-8.4-8.4a22.39,22.39,0,0,1-2.6-4.3c-25.7,15.8-45.2,36.5-67.5,53.9a152.89,152.89,0,0,1,6.7-19.4c2.2-5.6,1.1-9.6-3.2-13.4a136,136,0,0,1-10.1-10c-4.9-5.3-8.9-5-12.7,1.2a12.93,12.93,0,0,0-1.8,3.5c-.5,2.3-.7,4.7-1,7.1,2.1-.5,4.1-.9,6.5-1.5-.2,1.1-.5,2.3-.8,3.5-2.6,8.8-8.5,15.5-14.9,21.6-19,18.2-38.2,36.2-57.3,54.3-1.2,1.1-2.6,2-3.9,3a3.76,3.76,0,0,1,.8-3.2c6.1-7.4,12.2-15,18.6-22.2,3.8-4.3,6.3-8.8,5.6-14.8-.2-2.1,1.3-4.3,2.1-6.5a8.8,8.8,0,0,0,1.5.5c-.4,2.6-.7,5.2-1.1,8.2,9.4-3.2,20.4-18.8,17.3-24.1C439.6,338.1,437,340.2,434.3,342.2ZM353.2,95.4a25.45,25.45,0,0,0-.3,50.9,25.78,25.78,0,0,0,25.8-25.7A25.48,25.48,0,0,0,353.2,95.4ZM237,392.9c3.1-9.7,16.1-9.4,19.6-19.3C248.2,373.5,235.6,385.6,237,392.9Zm212-62.1,1.5,1.5a37.51,37.51,0,0,0,13.9-13.5l-1.7-1.7C458.1,321.6,453.6,326.2,449,330.8ZM266.8,363.6l2.1,3a86.08,86.08,0,0,0,8.3-4.9c.6-.4,0-2.4,0-3.6-1.2.1-2.6-.3-3.4.3A70.46,70.46,0,0,0,266.8,363.6ZM242.3,216.4c.7.8,1.5,1.5,2.2,2.3l11.2-11.5-1.6-1.6C250.1,209.2,246.2,212.8,242.3,216.4Zm15.7,153c1.7,1.7,2.9,2.8,4,3.9,1-1.6,2.6-3,2.8-4.7.1-1-2-2.3-3-3.4C260.7,366.4,259.6,367.6,258,369.4Zm5.1-169.2c.1.5.3,1,.4,1.5,3.1-.9,6.3-1.8,10.5-3.1C268.9,195.1,266.3,195.9,263.1,200.2Zm-41,40.3c-6.9,1.8-8.2,4.3-5.1,8.9C218.9,246.2,220.5,243.3,222.1,240.5ZM594.2,367.6c.4.9.7,1.9,1.1,2.8a49.25,49.25,0,0,0,5.3-2.2,11.28,11.28,0,0,0-.8-2.4A45.87,45.87,0,0,0,594.2,367.6Z" transform="translate(-87.55 -42.63)" style="fill:#fff"/><path d="M254.7,409.9c-1,1.7-2.1,3.4-3.1,5.1l1.1,1.4c4.5-2.8,8.9-5.6,13.5-8.4,0,.2.3.7.1,1-18.7,35-38.9,69.1-63.5,100.4-3.2,4.1-7.7,7.3-11.8,10.6a5.29,5.29,0,0,1-4.6.6c-.7-.2-1-2.6-.9-4,1-7.7,1.3-15.6,6.1-22.4a5.87,5.87,0,0,0,.9-4.3c-1-4.9,1-8.2,4.9-11.1,1.6-1.2,2-3.9,2.8-6,.7-1.8.8-4,1.8-5.6,7.5-12.7,16.4-24,29-32.5,5.3-3.6,9-9.5,13.2-14.6,3.1-3.7,5.8-7.8,8.7-11.6A22,22,0,0,0,254.7,409.9Z" transform="translate(-87.55 -42.63)" style="fill:#fff"/><path d="M207.4,518.8c2.2,1,4.7,6.3,8.3.3,3.2-5.3-.5-6.7-4.6-8.4,7.8-1.1,12.1-6.3,15.6-11.8,8.6-13.5,16.8-27.2,25-40.9.8-1.4,1.1-3.2,2-5.7-2.7.9-4.3,1.5-7.4,2.5,1.4-3.6,2-6.4,3.4-8.6,5.8-9.2,11.5-18.4,17.8-27.1,2.2-3.1,6.4-4.7,9.5-7.3a45.84,45.84,0,0,0,6.7-6.5c4.3-5.2,9-9.7,16.6-11.5-3,12-13.4,20.1-14.7,32-3.2,4.5-6.4,9.2-9.8,13.8-3,4.1-6.1,8.1-9.5,12-2.2,2.5-2.8,8.5-.5,11.1s3.7.3,4.6-1.2c2-3.4,3.7-7,5.6-10.8,1.8,5.3-4.2,16.9-10.5,21-6.6-6.7-13-4.7-15.6,5-.9,3.2-1.6,6.5-2.3,9.7-1.3,6-4.6,9.6-10.9,10.9-2.5.5-4.7,2.5-7,3.8,2.2,2,4.1,4.3,6.6,5.7,1.2.7,3.7-.2,5.2-1s2.4-2.5,3.6-3.8c.6.4,1.1.7,1.7,1.1-2.8,5.1-5.6,10.1-8.4,15.2a6.47,6.47,0,0,1-1.3-.4c-.1-2.1-.2-4.2-.3-6-3.7.2-7,.4-10.4.6a21.63,21.63,0,0,0,0,2.6c.7,4.5-1.2,7.4-4.8,10.1a166.85,166.85,0,0,0-14.7,13.2c-3.4,3.3-6.5,7-11.4,6.7,0-3.5-.4-6.5.1-9.3.5-2.3,2-4.4,3.4-6.4C201.9,525.7,204.6,522.5,207.4,518.8Zm55.4-84.4c5.7-5.2,11.5-10.2,12.8-18.5C269.1,420.5,266,427.5,262.8,434.4Z" transform="translate(-87.55 -42.63)" style="fill:#fff"/><path d="M248,457.5c-5.8,12.2-13.8,22.9-21.8,33.7-.5-.3-.9-.6-1.4-.9,7-11.4,14.1-22.8,21.1-34.2C246.6,456.6,247.3,457.1,248,457.5Z" transform="translate(-87.55 -42.63)" style="fill:#fff"/><path d="M304.5,367.3c2.8-1.7,5.5-3.4,8.6-5.3-1.6-1.1-3.1-2.1-5.7-3.8,2.7-1.4,4.6-2.8,6.6-3.1a5.83,5.83,0,0,1,4.5,2.1c.6.8-.2,3.4-1.1,4.2-3.6,2.9-7.5,5.5-11.3,8.2C305.5,368.7,305,368,304.5,367.3Z" transform="translate(-87.55 -42.63)" style="fill:#fff"/><path d="M257.3,484.4c0,2.1.8,4.7-.2,6.2s-3.8,2.2-5.9,3.2a17.38,17.38,0,0,0-1.3-1.5c1.9-2.8,3.7-5.6,5.6-8.4C256.1,484.1,256.7,484.2,257.3,484.4Z" transform="translate(-87.55 -42.63)" style="fill:#fff"/><path d="M284.5,209.8c-3.9,2.4-7.9,4.9-11.8,7.3-.5-.8-.9-1.5-1.4-2.3,3.9-2.5,7.8-5,11.8-7.5C283.5,208.1,284,209,284.5,209.8Z" transform="translate(-87.55 -42.63)" style="fill:#fff"/><path d="M324.6,343.2a47,47,0,0,1-6,3.5c-.1.1-1.8-2.3-1.6-2.6a17.28,17.28,0,0,1,4.3-3.8C321.5,340.1,322.9,341.7,324.6,343.2Z" transform="translate(-87.55 -42.63)" style="fill:#fff"/><path d="M516.9,355.2c-1.9-.1-3.3-.6-4.2-.1-8.3,4.8-15.3,11-22.1,18.8,1.9.3,3.1.4,4.5.6-1.6,4.5-3.6,7.5-8.6,8.8-5.7,1.4-11.1,4.3-16.8,6.6a23.48,23.48,0,0,1,.9-4.9c3.2-8.7,6.6-17.1,15.1-22.7,6.8-4.6,12.3-11.2,18.6-16.6,5.3-4.5,11.1-8.4,16.6-12.6,1.1-.8,2.1-1.6,3.2-2.4,7-5.8,13.9-11.7,21-17.3,1.6-1.2,4.1-1.2,6.1-1.8-.3,2.2.2,5-.9,6.4-4.7,5.6-9.3,11.5-15.1,15.9C527.3,339.9,520.3,346.4,516.9,355.2Z" transform="translate(-87.55 -42.63)" style="fill:#fff"/><path d="M431.4,400.6c.5-18.7,30.5-50,47.5-51a8.31,8.31,0,0,1-1,2.3c-10,9.5-20.1,18.8-30,28.3-3.5,3.4-6.4,7.5-9.6,11.4C436.2,394.1,434.2,396.8,431.4,400.6ZM460,363.8c.5.4,1.1.8,1.6,1.2,3.1-2.5,7-4.5,7.3-9.1-.6-.4-1.1-.9-1.7-1.3C464.8,357.7,462.4,360.7,460,363.8Z" transform="translate(-87.55 -42.63)" style="fill:#fff"/><path d="M467.2,354.6" transform="translate(-87.55 -42.63)" style="fill:#fff"/><path d="M461.6,365c-.5-.4-1.1-.8-1.6-1.2" transform="translate(-87.55 -42.63)" style="fill:#fff"/><text transform="translate(678.09 395.63)" style="isolation:isolate;font-size:319.5592041015625px;fill:#fff;font-family:ArialRoundedMTBold, Arial Rounded MT Bold">DESIGN</text></g></svg>