<?xml version="1.0" encoding="utf-8"?>
<!-- Generator: Adobe Illustrator 24.3.0, SVG Export Plug-In . SVG Version: 6.00 Build 0)  -->
<svg version="1.1" xmlns="http://www.w3.org/2000/svg" xmlns:xlink="http://www.w3.org/1999/xlink" x="0px" y="0px"
	 viewBox="0 0 2140.8 651" style="enable-background:new 0 0 2140.8 651;" xml:space="preserve">
<style type="text/css">
	.st0{display:none;}
	.st1{fill:#FFFFFF;}
	.st2{font-family:'ArialRoundedMTBold';}
	.st3{font-size:319.5592px;}
</style>
<g id="Layer_1_xA0_Image_1_" class="st0">
</g>
<g id="Layer_0_xA0_Image_1_">
	<g>
		<path class="st1" d="M164.1,485.8c1.8-16.8,13.2-29.4,20.8-43.8c-9.5,3.1-11.4,14.1-20.8,19.1c0.4-3.5,0.7-5.8,1.1-9.5
			c-10.4,14.7-20.7,27.9-16.8,46.9c-5.8-8.3-11.8-16.3-17.2-24.8c-69-109-55.1-250.5,33.9-344c109.2-114.8,292.6-116.3,403.6-3.2
			c83,84.6,104.8,212,52.2,318.8c-43.9,89.2-116.6,141.6-214.9,156c-67,9.9-129.9-4.6-187.6-40.5c-4.3-2.7-4.9-4.6-0.9-6.8
			c11.9-6.7,18.8-17.8,25.7-28.7c14.1-22.2,27.5-44.9,41.1-67.4c1-1.7,1.7-3.6,2.6-5.4c-5.9-1.1-7.5-3.1-5.5-8.6
			c1.5-4.1,4.2-7.9,6.8-11.5c0.9-1.3,3.1-1.6,3.7-3c-1.3,2.2-3.2,4.3-3.8,6.7c-0.5,2.4,0.3,5,1.4,7.8c5.7-5.4,10.6-11.2,10.6-19.3
			c0-4.9,1.8-7.8,5.8-10c2-1.1,4-2.5,5.7-4.1c6-5.5,5.8-9.2,0.2-12.8c1-3.1,1.6-5.9,2.6-8.6c1.4-3.7,2.9-7.3,4.4-11
			c0.6,0.2,1.1,0.3,1.7,0.5c0.3,2.8,0.6,5.6,0.8,8.4c0.4,0.2,0.9,0.3,1.3,0.5c1.8-2.4,3.4-5,5.3-7.3c5.5-7.1,10.6-14.6,16.8-20.9
			c7.2-7.3,16.2-11.7,27.3-10c-0.4-0.6-0.8-1.2-1.2-1.7c2.4-2.2,4.5-5,7.2-6.6c5.4-3.2,11.3-5.6,16.9-8.6c1.9-1,3.4-2.8,5.1-4.3
			c-0.2-0.6-0.3-1.1-0.5-1.7c-2.1-0.1-4.4-0.9-6.3-0.3c-6,1.8-12,4-17.9,6c-4.4,1.6-8.6,4.5-13.7,1.4c-1.2-0.7-3.8,0.5-5.5,1.4
			c-3.5,1.8-6.8,4-10.5,6.2c0.9-6.1,3.5-8.8,9.9-9.8c5.7-0.9,11.4-1.6,17.9-2.4c-1.2-1.8-2-2.8-3.1-4.3c7.4-1.3,14.5-2.5,21.5-3.8
			c0.2-0.6,0.4-1.2,0.6-1.8c-5.2-4.5-10.2-9.4-15.9-13.2c-2-1.3-5.8-0.7-8.6,0c-4.5,1.1-8.8,3.1-13.2,4.6c-1.1,0.4-3.4,0.4-3.6-0.1
			c-0.6-1.2-0.7-3.2-0.1-4.1c1.3-1.8,3-3.6,5-4.5c8-3.8,9.8-7.3,7.7-16c-0.2-0.8-0.2-1.6-0.1-2.5c0.5-4.2,1-8.4,1.8-12.5
			c0.3-1.5,1.2-2.9,1.8-4.3c0.5,0.1,1,0.2,1.5,0.3c0.2,1.6,0.4,3.3,0.5,4.9c6-1.6,11.3-14.8,9.3-25.7c-2.1,5.3-4.1,10.6-6.3,16.4
			c-3.7-7.8,1.8-26.8,7.8-27.2c-2.9-13.1-5.7-26.2-8.6-39.5c2.1-0.4,3-0.4,3.7-0.8c1.1-0.5,2.1-1.3,3.1-2c-1-1-1.9-2-2.9-2.9
			c-1.6-1.4-3.6-2.4-4.8-4.1c-4.9-6.3-9.2-13.1-14.6-19c-7.4-8.1-17-10.6-27.9-8.3c-9.6,2-18.4,6-26.2,11.9
			c-2.1,1.6-3.4,4.3-5.6,7.4c-7.1-0.1-13.3,3.7-18,10.4c0.2,0.4,0.4,0.8,0.7,1.2c1.8-1.2,3.6-2.3,5.5-3.5c1.4-0.9,2.8-2.7,4.1-2.6
			c2.5,0.3,5,1.6,7.5,2.5c-1.2,1.9-1.9,4.6-3.6,5.7c-3,1.9-7.7,2-9.8,4.5c-7.5,8.4-18.2,12.5-26.1,19.9c-14.5,13.5-28.1,28-42,42
			c-0.9,0.9-2,1.5-4.2,1.7c0.5-2.5,0.9-5,1.5-8.2c-3.3,3.4-5.9,6.1-4.1,10.8c0.5,1.2-0.7,3-1.3,5.4c-1.9-1.8-2.9-2.8-4.4-4.2
			c-1.5,1.8-3.3,3.3-4.4,5.3c-4.7,8.5-9.1,17-13.6,25.6c-0.6,1.2-1.1,2.5-1.8,3.6c-9.2,15.1-6.8,30.3-0.2,45.5
			c0.3,0.8,0.7,1.5,1.1,2.2c5.1,8.9,11.3,9.3,17.3,0.9c2-2.8,3.9-5.9,5-9.2c8.8-25.7,23.9-47.6,41.1-68.1
			c23.1-27.6,48.9-52.4,79.9-71.1c6.7-4,13.8-7.4,21.1-10.2c7.7-2.9,11.2-0.3,11.4,7.8c0.3,15.3-2.3,30.3-7.2,44.7
			c-1.7,4.8-4.6,9-3.4,14.4c0.1,0.4-0.1,1-0.3,1.5c-2.3,5.8-2.3,5.8-1.2,10.7c-5.5-0.5-7.3,1.8-6.5,7.4c0.4,2.9-1.1,6.2-2.1,9.1
			c-1.7,5-3.4,10-5.4,14.9c-2,5-5.2,8.8-11.4,9c3.4,6.3,1.4,12.1-1.4,17.7c-0.7,1.3-2.3,3.1-3.5,3.1c-4.4,0.1-6.4,3-8.4,6.2
			c-3.5,5.6-7.7,10.9-10.4,16.9c-1.8,4-4,9.1,2.1,12.7c2.3,1.3,0.3,4.6-4,6.1c-0.2-0.9-0.4-1.8-0.6-2.7c-0.2-0.8-0.3-1.6-0.4-2.3
			c-4.7,0.8-7.3,5.5-7.3,13.3c1.1-0.4,2.1-0.6,3.1-1c1-0.5,2-1.2,4.1-1c-2.5,3.9-5,7.8-8.3,12.9c0.3-3.9,0.5-6.2,0.9-9.8
			c-10.4,5.4-11.9,16.6-19.7,23.4c1.3-4.2,2.3-7.6,3.3-11.1c-0.4-0.3-0.9-0.5-1.3-0.8c-1.6,1-3.5,1.8-4.9,3.1
			c-21.5,19.2-43,38.4-64.4,57.7c-1.9,1.7-3,4.4-4.9,6.3c-3.5,3.5-6.9,7.5-11.1,9.7c-6.5,3.4-11.7,7.5-14.9,14.1
			c-0.9,1.8-2.3,3.4-3.5,5.1C165.1,486.3,164.6,486,164.1,485.8z M434.3,342.2c-0.5-0.4-1-0.7-1.5-1.1c1.5-3.4,3.3-6.8,4.3-10.3
			c1.6-6,3.6-12.2,3.8-18.3c0.2-6.7-3-12.6-8.6-16.7c-3.8-2.9-6.3-2-8,2.3c-0.7,1.8-1.6,3.7-2.6,5.4c-8.1,13-16.4,25.9-24.5,38.9
			c-16,25.4-32.2,50.6-47.7,76.3c-3,5-3.6,11.6-4.5,17.6c-1.2,8,4.2,13.9,7.9,20c2.7,4.5,7.2,4.7,11.1,0.8c4.9-4.9,9-10.6,13.7-15.9
			c16.9-19,33.8-38.1,50.9-57c1.7-1.9,4.1-3.3,6.8-5.4c-0.2,1.5-0.2,1.8-0.3,2.1c-0.8,1.5-1.5,3-2.4,4.4c-8.8,13.8-6,27.1,2.3,39.8
			c5,7.6,8.7,7.8,15.2,1.7c20-18.8,40.1-37.6,59.9-56.7c9.1-8.7,20.2-15.5,26.4-27c0.3-0.5,1-0.9,1.5-1.2c3.3-1.3,6.6-2.6,9.7-3.9
			c-4,11-8.2,22.7-12.3,34.5c-0.7,2-1.8,4.5-1.1,6.2c4,10.7,8,21.5,13,31.8c2.9,6.1,10.6,9.1,17.2,7.1c4.4-1.4,8.5-4.3,12.3-7.1
			c1.8-1.3,2.7-4,4-6c-2.2-1-4.3-2-6.5-2.9c-0.7-0.3-1.4-0.7-2.6-1.3c3.3-4,6.6-7.5,9.4-11.3c1.1-1.6,1.2-4,1.7-6
			c-2.2,0.7-4.4,1.4-6.5,2.2c-0.4,0.2-0.7,0.7-1.1,1c-5.7,6.5-13.1,7-20.4,1.8c3.1-8.2,6.5-16.1,9-24.3c4-13.2,7.6-26.5,10.9-39.9
			c1.6-6.5,2.1-13-5.9-16.9c-3.4-1.7-5.8-5.4-8.4-8.4c-1.2-1.3-1.9-3.1-2.6-4.3c-25.7,15.8-45.2,36.5-67.5,53.9
			c1.7-6.8,4.2-13.1,6.7-19.4c2.2-5.6,1.1-9.6-3.2-13.4c-3.5-3.1-6.9-6.5-10.1-10c-4.9-5.3-8.9-5-12.7,1.2c-0.7,1.1-1.5,2.3-1.8,3.5
			c-0.5,2.3-0.7,4.7-1,7.1c2.1-0.5,4.1-0.9,6.5-1.5c-0.2,1.1-0.5,2.3-0.8,3.5c-2.6,8.8-8.5,15.5-14.9,21.6
			c-19,18.2-38.2,36.2-57.3,54.3c-1.2,1.1-2.6,2-3.9,3c-0.2-1.6,0.2-2.5,0.8-3.2c6.1-7.4,12.2-15,18.6-22.2
			c3.8-4.3,6.3-8.8,5.6-14.8c-0.2-2.1,1.3-4.3,2.1-6.5c0.5,0.2,1,0.4,1.5,0.5c-0.4,2.6-0.7,5.2-1.1,8.2c9.4-3.2,20.4-18.8,17.3-24.1
			C439.6,338.1,437,340.2,434.3,342.2z M353.2,95.4c-14,0-25.4,11.3-25.5,25.3c0,14,11.3,25.5,25.2,25.6
			c14.1,0.1,25.9-11.6,25.8-25.7C378.7,106.8,367.2,95.4,353.2,95.4z M237,392.9c3.1-9.7,16.1-9.4,19.6-19.3
			C248.2,373.5,235.6,385.6,237,392.9z M449,330.8c0.5,0.5,1,1,1.5,1.5c5.8-3.4,10.5-7.7,13.9-13.5c-0.6-0.6-1.1-1.1-1.7-1.7
			C458.1,321.6,453.6,326.2,449,330.8z M266.8,363.6c0.7,1,1.4,2,2.1,3c2.8-1.6,5.7-3,8.3-4.9c0.6-0.4,0-2.4,0-3.6
			c-1.2,0.1-2.6-0.3-3.4,0.3C271.3,359.9,269.1,361.8,266.8,363.6z M242.3,216.4c0.7,0.8,1.5,1.5,2.2,2.3c3.7-3.8,7.5-7.7,11.2-11.5
			c-0.5-0.5-1.1-1.1-1.6-1.6C250.1,209.2,246.2,212.8,242.3,216.4z M258,369.4c1.7,1.7,2.9,2.8,4,3.9c1-1.6,2.6-3,2.8-4.7
			c0.1-1-2-2.3-3-3.4C260.7,366.4,259.6,367.6,258,369.4z M263.1,200.2c0.1,0.5,0.3,1,0.4,1.5c3.1-0.9,6.3-1.8,10.5-3.1
			C268.9,195.1,266.3,195.9,263.1,200.2z M222.1,240.5c-6.9,1.8-8.2,4.3-5.1,8.9C218.9,246.2,220.5,243.3,222.1,240.5z M594.2,367.6
			c0.4,0.9,0.7,1.9,1.1,2.8c1.8-0.7,3.6-1.3,5.3-2.2c0.1,0-0.7-2.4-0.8-2.4C597.8,366.3,596,366.9,594.2,367.6z"/>
		<path class="st1" d="M254.7,409.9c-1,1.7-2.1,3.4-3.1,5.1c0.4,0.5,0.7,0.9,1.1,1.4c4.5-2.8,8.9-5.6,13.5-8.4c0,0.2,0.3,0.7,0.1,1
			c-18.7,35-38.9,69.1-63.5,100.4c-3.2,4.1-7.7,7.3-11.8,10.6c-1.1,0.9-3.2,1.1-4.6,0.6c-0.7-0.2-1-2.6-0.9-4
			c1-7.7,1.3-15.6,6.1-22.4c0.8-1.1,1.2-2.9,0.9-4.3c-1-4.9,1-8.2,4.9-11.1c1.6-1.2,2-3.9,2.8-6c0.7-1.8,0.8-4,1.8-5.6
			c7.5-12.7,16.4-24,29-32.5c5.3-3.6,9-9.5,13.2-14.6c3.1-3.7,5.8-7.8,8.7-11.6C253.5,409,254.1,409.5,254.7,409.9z"/>
		<path class="st1" d="M207.4,518.8c2.2,1,4.7,6.3,8.3,0.3c3.2-5.3-0.5-6.7-4.6-8.4c7.8-1.1,12.1-6.3,15.6-11.8
			c8.6-13.5,16.8-27.2,25-40.9c0.8-1.4,1.1-3.2,2-5.7c-2.7,0.9-4.3,1.5-7.4,2.5c1.4-3.6,2-6.4,3.4-8.6c5.8-9.2,11.5-18.4,17.8-27.1
			c2.2-3.1,6.4-4.7,9.5-7.3c2.4-2,4.8-4.1,6.7-6.5c4.3-5.2,9-9.7,16.6-11.5c-3,12-13.4,20.1-14.7,32c-3.2,4.5-6.4,9.2-9.8,13.8
			c-3,4.1-6.1,8.1-9.5,12c-2.2,2.5-2.8,8.5-0.5,11.1c2.3,2.5,3.7,0.3,4.6-1.2c2-3.4,3.7-7,5.6-10.8c1.8,5.3-4.2,16.9-10.5,21
			c-6.6-6.7-13-4.7-15.6,5c-0.9,3.2-1.6,6.5-2.3,9.7c-1.3,6-4.6,9.6-10.9,10.9c-2.5,0.5-4.7,2.5-7,3.8c2.2,2,4.1,4.3,6.6,5.7
			c1.2,0.7,3.7-0.2,5.2-1c1.4-0.8,2.4-2.5,3.6-3.8c0.6,0.4,1.1,0.7,1.7,1.1c-2.8,5.1-5.6,10.1-8.4,15.2c-0.4-0.1-0.9-0.2-1.3-0.4
			c-0.1-2.1-0.2-4.2-0.3-6c-3.7,0.2-7,0.4-10.4,0.6c0,0.4-0.1,1.5,0,2.6c0.7,4.5-1.2,7.4-4.8,10.1c-5.2,4-10,8.6-14.7,13.2
			c-3.4,3.3-6.5,7-11.4,6.7c0-3.5-0.4-6.5,0.1-9.3c0.5-2.3,2-4.4,3.4-6.4C201.9,525.7,204.6,522.5,207.4,518.8z M262.8,434.4
			c5.7-5.2,11.5-10.2,12.8-18.5C269.1,420.5,266,427.5,262.8,434.4z"/>
		<path class="st1" d="M248,457.5c-5.8,12.2-13.8,22.9-21.8,33.7c-0.5-0.3-0.9-0.6-1.4-0.9c7-11.4,14.1-22.8,21.1-34.2
			C246.6,456.6,247.3,457.1,248,457.5z"/>
		<path class="st1" d="M304.5,367.3c2.8-1.7,5.5-3.4,8.6-5.3c-1.6-1.1-3.1-2.1-5.7-3.8c2.7-1.4,4.6-2.8,6.6-3.1
			c1.4-0.2,3.6,0.9,4.5,2.1c0.6,0.8-0.2,3.4-1.1,4.2c-3.6,2.9-7.5,5.5-11.3,8.2C305.5,368.7,305,368,304.5,367.3z"/>
		<path class="st1" d="M257.3,484.4c0,2.1,0.8,4.7-0.2,6.2c-1.1,1.6-3.8,2.2-5.9,3.2c-0.4-0.5-0.8-1-1.3-1.5
			c1.9-2.8,3.7-5.6,5.6-8.4C256.1,484.1,256.7,484.2,257.3,484.4z"/>
		<path class="st1" d="M284.5,209.8c-3.9,2.4-7.9,4.9-11.8,7.3c-0.5-0.8-0.9-1.5-1.4-2.3c3.9-2.5,7.8-5,11.8-7.5
			C283.5,208.1,284,209,284.5,209.8z"/>
		<path class="st1" d="M324.6,343.2c-2.5,1.6-4.2,2.7-6,3.5c-0.1,0.1-1.8-2.3-1.6-2.6c1.2-1.5,2.7-2.8,4.3-3.8
			C321.5,340.1,322.9,341.7,324.6,343.2z"/>
		<path class="st1" d="M516.9,355.2c-1.9-0.1-3.3-0.6-4.2-0.1c-8.3,4.8-15.3,11-22.1,18.8c1.9,0.3,3.1,0.4,4.5,0.6
			c-1.6,4.5-3.6,7.5-8.6,8.8c-5.7,1.4-11.1,4.3-16.8,6.6c0.2-1,0.2-3.1,0.9-4.9c3.2-8.7,6.6-17.1,15.1-22.7
			c6.8-4.6,12.3-11.2,18.6-16.6c5.3-4.5,11.1-8.4,16.6-12.6c1.1-0.8,2.1-1.6,3.2-2.4c7-5.8,13.9-11.7,21-17.3
			c1.6-1.2,4.1-1.2,6.1-1.8c-0.3,2.2,0.2,5-0.9,6.4c-4.7,5.6-9.3,11.5-15.1,15.9C527.3,339.9,520.3,346.4,516.9,355.2z"/>
		<path class="st1" d="M431.4,400.6c0.5-18.7,30.5-50,47.5-51c-0.4,0.9-0.5,1.8-1,2.3c-10,9.5-20.1,18.8-30,28.3
			c-3.5,3.4-6.4,7.5-9.6,11.4C436.2,394.1,434.2,396.8,431.4,400.6z M460,363.8c0.5,0.4,1.1,0.8,1.6,1.2c3.1-2.5,7-4.5,7.3-9.1
			c-0.6-0.4-1.1-0.9-1.7-1.3C464.8,357.7,462.4,360.7,460,363.8z"/>
		<path class="st1" d="M467.2,354.6"/>
		<path class="st1" d="M461.6,365c-0.5-0.4-1.1-0.8-1.6-1.2"/>
	</g>
	<text transform="matrix(1 0 0 1 765.6334 438.263)" class="st1 st2 st3">DESIGN</text>
</g>
<g id="Layer_2_xA0_Image_1_" class="st0">
</g>
</svg>
