<?xml version="1.0" encoding="utf-8"?>
<!-- Generator: Adobe Illustrator 24.3.0, SVG Export Plug-In . SVG Version: 6.00 Build 0)  -->
<svg version="1.1" id="Layer_1" xmlns="http://www.w3.org/2000/svg" xmlns:xlink="http://www.w3.org/1999/xlink" x="0px" y="0px"
	 viewBox="0 0 195 57" style="enable-background:new 0 0 195 57;" xml:space="preserve">
<style type="text/css">
	.st0{fill:#DC965A;}
</style>
<path class="st0" d="M43.9,51c0,1.2-0.4,2.2-1.3,3.1c-0.9,0.9-1.9,1.3-3.1,1.3c-1.3,0-2.4-0.5-3.5-1.6L10.7,30.1v20.5
	c0,1.5-0.4,2.7-1.3,3.6c-0.9,0.9-2.1,1.4-3.6,1.4c-1.5,0-2.6-0.5-3.5-1.4c-0.9-0.9-1.3-2.1-1.3-3.6V6c0-1.5,0.4-2.6,1.3-3.5
	c0.9-0.9,2.1-1.3,3.5-1.3c1.5,0,2.7,0.4,3.6,1.3c0.9,0.9,1.3,2.1,1.3,3.5v19.5L35.1,2.6c0.9-0.9,1.9-1.4,3.1-1.4
	c1.2,0,2.2,0.4,3.1,1.3c0.9,0.9,1.3,1.9,1.3,3.1s-0.5,2.2-1.5,3.2L20.7,27.5l21.7,20.2C43.4,48.7,43.9,49.7,43.9,51z"/>
<path class="st0" d="M74,18c0.8,0.7,1.1,1.6,1.1,3c0,1.4-0.3,2.4-1,3c-0.7,0.7-1.8,1.1-3.6,1.3l-2.3,0.2c-3,0.3-5.2,1.3-6.6,3
	c-1.4,1.7-2.1,3.9-2.1,6.5V51c0,1.5-0.5,2.6-1.4,3.4c-0.9,0.8-2,1.2-3.4,1.2c-1.4,0-2.5-0.4-3.4-1.2c-0.9-0.8-1.3-1.9-1.3-3.4V21.6
	c0-1.4,0.4-2.5,1.3-3.3c0.9-0.8,2-1.1,3.3-1.1c1.3,0,2.4,0.4,3.2,1.1c0.8,0.7,1.2,1.8,1.2,3.1v3c1-2.2,2.4-3.9,4.3-5.2
	c1.9-1.2,4-1.9,6.3-2l1.1-0.1C72.2,17.1,73.2,17.4,74,18z"/>
<path class="st0" d="M85.4,53.3c-2.9-1.6-5.1-3.8-6.6-6.8c-1.6-2.9-2.4-6.3-2.4-10.2c0-3.9,0.8-7.3,2.4-10.2
	c1.6-2.9,3.8-5.1,6.6-6.7c2.9-1.6,6.2-2.4,10-2.4c3.8,0,7.1,0.8,10,2.4c2.9,1.6,5.1,3.8,6.6,6.7c1.5,2.9,2.3,6.3,2.3,10.2
	c0,3.9-0.8,7.3-2.3,10.2c-1.5,2.9-3.7,5.2-6.6,6.8c-2.9,1.6-6.2,2.4-10,2.4C91.6,55.7,88.3,54.9,85.4,53.3z M102.4,45.3
	c1.6-2,2.4-5,2.4-9c0-3.9-0.8-6.9-2.4-8.9c-1.6-2.1-3.9-3.1-7-3.1c-3,0-5.4,1-7,3.1c-1.6,2-2.5,5-2.5,8.9c0,3.9,0.8,6.9,2.4,9
	c1.6,2,3.9,3,7,3C98.4,48.3,100.7,47.3,102.4,45.3z"/>
<path class="st0" d="M153,51.5c0,1.1-0.4,2-1.1,2.6c-0.7,0.6-1.8,0.9-3.2,0.9h-25.3c-1.3,0-2.3-0.4-3.1-1.2
	c-0.8-0.8-1.2-1.8-1.2-2.9c0-1.2,0.5-2.3,1.4-3.3l19.5-22.5H123c-1.4,0-2.5-0.3-3.2-0.9c-0.7-0.6-1.1-1.5-1.1-2.7
	c0-1.2,0.4-2,1.1-2.7c0.7-0.6,1.8-0.9,3.2-0.9h24.5c1.3,0,2.4,0.4,3.2,1.2c0.8,0.8,1.2,1.8,1.2,2.9c0,1.2-0.4,2.3-1.3,3.3L131,47.9
	h17.8C151.6,47.9,153,49.1,153,51.5z"/>
<path class="st0" d="M165.8,53.3c-2.9-1.6-5.1-3.8-6.6-6.8c-1.6-2.9-2.4-6.3-2.4-10.2c0-3.9,0.8-7.3,2.4-10.2
	c1.6-2.9,3.8-5.1,6.6-6.7c2.9-1.6,6.2-2.4,10-2.4c3.8,0,7.1,0.8,10,2.4c2.9,1.6,5.1,3.8,6.6,6.7c1.5,2.9,2.3,6.3,2.3,10.2
	c0,3.9-0.8,7.3-2.3,10.2c-1.5,2.9-3.7,5.2-6.6,6.8c-2.9,1.6-6.2,2.4-10,2.4C172,55.7,168.6,54.9,165.8,53.3z M182.7,45.3
	c1.6-2,2.4-5,2.4-9c0-3.9-0.8-6.9-2.4-8.9c-1.6-2.1-3.9-3.1-7-3.1c-3,0-5.4,1-7,3.1c-1.6,2-2.5,5-2.5,8.9c0,3.9,0.8,6.9,2.4,9
	c1.6,2,3.9,3,7,3C178.8,48.3,181.1,47.3,182.7,45.3z"/>
</svg>
